<svg width="219" height="60" viewBox="0 0 219 60" fill="none" xmlns="http://www.w3.org/2000/svg">
<path d="M0.17 59.9824L12.07 0.482418H43.605C50.6883 0.482418 56.015 1.72909 59.585 4.22242C63.155 6.65909 64.94 10.1441 64.94 14.6774C64.94 18.3608 63.8633 21.4774 61.71 24.0274C59.6133 26.5774 56.695 28.5324 52.955 29.8924C49.2717 31.1958 45.0217 31.8474 40.205 31.8474L42.755 27.2574C48.8183 27.2574 53.5783 28.4758 57.035 30.9124C60.5483 33.2924 62.305 36.6641 62.305 41.0274C62.305 45.3908 61.03 48.9891 58.48 51.8224C55.9867 54.5991 52.6433 56.6674 48.45 58.0274C44.2567 59.3308 39.61 59.9824 34.51 59.9824H0.17ZM22.695 45.9574H35.615C37.5983 45.9574 39.2133 45.5041 40.46 44.5974C41.7633 43.6908 42.415 42.3308 42.415 40.5174C42.415 39.2141 41.905 38.2508 40.885 37.6274C39.9217 36.9474 38.7883 36.6074 37.485 36.6074H23.205L25.84 23.3474H37.4C38.93 23.3474 40.1767 23.1491 41.14 22.7524C42.16 22.2991 42.8967 21.7041 43.35 20.9674C43.8033 20.1741 44.03 19.2391 44.03 18.1624C44.03 16.9158 43.5483 16.0091 42.585 15.4424C41.6783 14.8191 40.4033 14.5074 38.76 14.5074H28.985L22.695 45.9574ZM59.4522 59.9824L97.3622 0.482418H117.082L131.192 59.9824H111.217L101.612 9.74742H109.432L80.6172 59.9824H59.4522ZM76.9622 49.6124L84.9522 35.1624H112.322L114.532 49.6124H76.9622ZM134.394 59.9824L146.294 0.482418H166.354L157.599 44.4274H184.459L181.314 59.9824H134.394ZM186.855 59.9824L198.755 0.482418H218.815L206.915 59.9824H186.855Z" fill="#EF790C"/>
</svg>
