<svg width="238" height="60" viewBox="0 0 238 60" fill="none" xmlns="http://www.w3.org/2000/svg">
<path d="M50.66 0.482418V-1.01758H49.4303L49.1891 0.188244L50.66 0.482418ZM70.72 0.482418L72.1909 0.776592L72.5497 -1.01758H70.72V0.482418ZM58.82 59.9824V61.4824H60.0497L60.2909 60.2766L58.82 59.9824ZM38.76 59.9824L37.2891 59.6882L36.9303 61.4824H38.76V59.9824ZM20.23 59.9824V61.4824H21.4597L21.7009 60.2766L20.23 59.9824ZM0.17 59.9824L-1.30087 59.6882L-1.65971 61.4824H0.17V59.9824ZM12.07 0.482418V-1.01758H10.8403L10.5991 0.188244L12.07 0.482418ZM32.13 0.482418L33.6009 0.776592L33.9597 -1.01758H32.13V0.482418ZM44.455 38.0524V39.5524H45.6835L45.9256 38.3481L44.455 38.0524ZM23.29 38.0524L21.8194 37.7568L21.4584 39.5524H23.29V38.0524ZM26.605 21.5624V20.0624H25.3765L25.1344 21.2668L26.605 21.5624ZM47.77 21.5624L49.2406 21.8581L49.6016 20.0624H47.77V21.5624ZM50.66 1.98242H70.72V-1.01758H50.66V1.98242ZM69.2491 0.188244L57.3491 59.6882L60.2909 60.2766L72.1909 0.776592L69.2491 0.188244ZM58.82 58.4824H38.76V61.4824H58.82V58.4824ZM40.2309 60.2766L52.1309 0.776592L49.1891 0.188244L37.2891 59.6882L40.2309 60.2766ZM20.23 58.4824H0.17V61.4824H20.23V58.4824ZM1.64087 60.2766L13.5409 0.776592L10.5991 0.188244L-1.30087 59.6882L1.64087 60.2766ZM12.07 1.98242H32.13V-1.01758H12.07V1.98242ZM30.6591 0.188244L18.7591 59.6882L21.7009 60.2766L33.6009 0.776592L30.6591 0.188244ZM44.455 36.5524H23.29V39.5524H44.455V36.5524ZM24.7606 38.3481L28.0756 21.8581L25.1344 21.2668L21.8194 37.7568L24.7606 38.3481ZM26.605 23.0624H47.77V20.0624H26.605V23.0624ZM46.2994 21.2668L42.9844 37.7568L45.9256 38.3481L49.2406 21.8581L46.2994 21.2668ZM62.0254 59.9824L60.7604 59.1764L59.2911 61.4824H62.0254V59.9824ZM99.9354 0.482418V-1.01758H99.1125L98.6704 -0.323597L99.9354 0.482418ZM119.655 0.482418L121.115 0.136303L120.841 -1.01758H119.655V0.482418ZM133.765 59.9824V61.4824H135.663L135.225 59.6363L133.765 59.9824ZM113.79 59.9824L112.317 60.2641L112.55 61.4824H113.79V59.9824ZM104.185 9.74742V8.24742H102.371L102.712 10.0291L104.185 9.74742ZM112.005 9.74742L113.307 10.4938L114.595 8.24742H112.005V9.74742ZM83.1904 59.9824V61.4824H84.0593L84.4916 60.7288L83.1904 59.9824ZM79.5354 49.6124L78.2227 48.8866L76.992 51.1124H79.5354V49.6124ZM87.5254 35.1624V33.6624H86.6408L86.2127 34.4366L87.5254 35.1624ZM114.895 35.1624L116.378 34.9356L116.183 33.6624H114.895V35.1624ZM117.105 49.6124V51.1124H118.852L118.588 49.3856L117.105 49.6124ZM63.2905 60.7884L101.2 1.28843L98.6704 -0.323597L60.7604 59.1764L63.2905 60.7884ZM99.9354 1.98242H119.655V-1.01758H99.9354V1.98242ZM118.196 0.828533L132.306 60.3285L135.225 59.6363L121.115 0.136303L118.196 0.828533ZM133.765 58.4824H113.79V61.4824H133.765V58.4824ZM115.264 59.7007L105.659 9.46572L102.712 10.0291L112.317 60.2641L115.264 59.7007ZM104.185 11.2474H112.005V8.24742H104.185V11.2474ZM110.704 9.00108L81.8893 59.2361L84.4916 60.7288L113.307 10.4938L110.704 9.00108ZM83.1904 58.4824H62.0254V61.4824H83.1904V58.4824ZM80.8481 50.3383L88.8381 35.8883L86.2127 34.4366L78.2227 48.8866L80.8481 50.3383ZM87.5254 36.6624H114.895V33.6624H87.5254V36.6624ZM113.413 35.3892L115.623 49.8392L118.588 49.3856L116.378 34.9356L113.413 35.3892ZM117.105 48.1124H79.5354V51.1124H117.105V48.1124ZM136.967 59.9824L135.496 59.6882L135.137 61.4824H136.967V59.9824ZM148.867 0.482418V-1.01758H147.637L147.396 0.188244L148.867 0.482418ZM165.357 0.482418L166.633 -0.305567L166.194 -1.01758H165.357V0.482418ZM187.712 36.6924V38.1924H190.401L188.988 35.9044L187.712 36.6924ZM180.742 36.6924L179.271 36.3989L178.913 38.1924H180.742V36.6924ZM187.967 0.482418V-1.01758H186.737L186.496 0.188908L187.967 0.482418ZM207.517 0.482418L208.988 0.776592L209.347 -1.01758H207.517V0.482418ZM195.617 59.9824V61.4824H196.847L197.088 60.2766L195.617 59.9824ZM179.127 59.9824L177.851 60.7704L178.29 61.4824H179.127V59.9824ZM156.772 23.7724V22.2724H154.083L155.496 24.5604L156.772 23.7724ZM163.742 23.7724L165.213 24.0659L165.571 22.2724H163.742V23.7724ZM156.517 59.9824V61.4824H157.747L157.988 60.2759L156.517 59.9824ZM138.438 60.2766L150.338 0.776592L147.396 0.188244L135.496 59.6882L138.438 60.2766ZM148.867 1.98242H165.357V-1.01758H148.867V1.98242ZM164.081 1.2704L186.436 37.4804L188.988 35.9044L166.633 -0.305567L164.081 1.2704ZM187.712 35.1924H180.742V38.1924H187.712V35.1924ZM182.213 36.9859L189.438 0.775928L186.496 0.188908L179.271 36.3989L182.213 36.9859ZM187.967 1.98242H207.517V-1.01758H187.967V1.98242ZM206.046 0.188244L194.146 59.6882L197.088 60.2766L208.988 0.776592L206.046 0.188244ZM195.617 58.4824H179.127V61.4824H195.617V58.4824ZM180.403 59.1944L158.048 22.9844L155.496 24.5604L177.851 60.7704L180.403 59.1944ZM156.772 25.2724H163.742V22.2724H156.772V25.2724ZM162.271 23.4789L155.046 59.6889L157.988 60.2759L165.213 24.0659L162.271 23.4789ZM156.517 58.4824H136.967V61.4824H156.517V58.4824ZM205.282 59.9824L203.811 59.6882L203.453 61.4824H205.282V59.9824ZM217.182 0.482418V-1.01758H215.953L215.711 0.188244L217.182 0.482418ZM237.242 0.482418L238.713 0.776592L239.072 -1.01758H237.242V0.482418ZM225.342 59.9824V61.4824H226.572L226.813 60.2766L225.342 59.9824ZM206.753 60.2766L218.653 0.776592L215.711 0.188244L203.811 59.6882L206.753 60.2766ZM217.182 1.98242H237.242V-1.01758H217.182V1.98242ZM235.771 0.188244L223.871 59.6882L226.813 60.2766L238.713 0.776592L235.771 0.188244ZM225.342 58.4824H205.282V61.4824H225.342V58.4824Z" fill="#EF790C"/>
</svg>
