<svg width="421" height="445" viewBox="0 0 421 445" fill="none" xmlns="http://www.w3.org/2000/svg">
<rect x="2.85461" y="16.2092" width="347" height="352" rx="5" fill="#FF8A00" fill-opacity="0.15"/>
<rect x="71.8546" y="64.2092" width="349" height="380" rx="5" fill="#EF790C"/>
<path d="M4.37951 398.239C5.95033 403.373 8.68447 406.586 11.615 407.869C15.0491 409.368 18.7017 408.143 22.0605 405.693C25.1478 403.439 28.2856 400.187 30.739 395.632C32.7783 391.853 34.7924 386.06 34.301 380.385C34.0751 377.772 33.1811 375.726 31.7912 375.641C30.1844 375.537 28.5988 377.706 27.7942 380.502C26.138 386.262 27.004 393.286 29.198 397.483C31.4874 401.868 34.8356 403.536 38.0345 403.223C41.5523 402.878 44.9998 400.389 48.0513 396.623C51.1027 392.856 53.7205 387.995 56.1746 382.835C58.6287 377.674 60.9429 372.409 62.002 365.828C62.253 364.27 62.4108 362.68 62.4717 361.071C62.5162 359.937 61.1245 360.504 61.0894 361.416C60.843 367.711 59.0635 373.236 57.0344 378.052C54.9707 382.945 52.667 387.598 50.1702 391.612C47.6866 395.613 44.8974 398.936 41.843 400.591C38.8907 402.194 35.7003 402.2 32.9816 399.718C30.4242 397.385 28.4249 392.837 28.3135 386.92C28.2609 384.144 28.6673 380.965 29.6835 378.847C30.0761 378.032 30.6364 377.14 31.216 377.185C31.7957 377.231 32.2355 377.987 32.5257 378.873C33.1534 380.808 33.0851 383.499 32.7607 385.715C32.3716 388.386 31.6518 390.817 30.7388 392.954C28.85 397.392 26.2359 400.487 23.6354 402.859C20.6155 405.608 17.3389 407.433 14.0827 406.892C11.3853 406.442 8.72732 404.227 6.87706 400.389C6.40751 399.418 5.99603 398.343 5.64189 397.19C5.41264 396.447 4.08664 397.333 4.36635 398.245H4.37933L4.37951 398.239Z" fill="#EF790C"/>
</svg>
