<svg width="425" height="444" viewBox="0 0 425 444" fill="none" xmlns="http://www.w3.org/2000/svg">
<rect x="7" y="16" width="347" height="352" rx="5" fill="#FF8A00" fill-opacity="0.15"/>
<rect x="76" y="64" width="349" height="380" rx="5" fill="#EF790C"/>
<g clip-path="url(#clip0_36_455)">
<path d="M331.284 0.245156C326.397 3.43897 321.972 7.34098 318.134 11.8262C316.215 14.0711 314.446 16.4549 312.861 18.9637C311.31 21.4077 309.871 24.0229 309.258 26.9112C308.693 29.5773 309 32.4425 310.813 34.5347C312.438 36.4093 314.895 37.2518 317.241 37.5804C319.96 37.9646 322.741 37.7748 325.455 37.4693C328.436 37.1314 331.395 36.5343 334.282 35.7011C340.808 33.8172 346.957 30.7021 352.417 26.5316C352.959 26.1197 352.203 25.8142 351.844 25.8883C344.633 27.3648 337.814 30.4892 331.919 35.0716C330.466 36.201 329.076 37.4138 327.761 38.7144C326.539 39.9179 325.157 41.4963 325.18 43.3663C325.224 47.0461 329.995 47.0924 332.474 46.9674C340.711 46.5462 348.512 43.445 356.028 40.1447C363.709 36.775 371.271 33.1091 378.725 29.2256C386.18 25.3421 393.616 21.204 400.924 16.9363C401.817 16.4133 402.71 15.8902 403.603 15.3625C403.892 15.1913 404.123 14.8302 403.768 14.6034C403.412 14.3766 402.777 14.5896 402.444 14.784C395.531 18.8665 388.552 22.8287 381.475 26.5964C374.407 30.3642 367.246 33.9376 359.978 37.2656C352.941 40.4826 345.74 43.8523 338.134 45.2872C336.219 45.6482 334.282 45.8889 332.336 45.9491C330.959 45.9908 329.467 45.9861 328.236 45.2455C326.801 44.38 326.628 42.6349 327.396 41.2047C328.24 39.6355 329.68 38.4274 330.977 37.2749C336.215 32.6323 342.474 29.2394 349.138 27.4666C349.955 27.2491 350.773 27.0547 351.599 26.8881L351.026 26.2447C346.495 29.7023 341.404 32.3962 336.05 34.1783C333.345 35.0809 330.573 35.7613 327.761 36.201C325.157 36.6037 322.487 36.8815 319.849 36.7565C317.574 36.65 315.1 36.1871 313.256 34.6967C311.257 33.0766 310.43 30.5447 310.701 27.9619C310.995 25.1708 312.216 22.5695 313.629 20.2181C315.042 17.8667 316.686 15.5014 318.44 13.3213C322.399 8.40559 327.094 4.15642 332.296 0.749686C332.541 0.592309 332.759 0.286814 332.439 0.0831504C332.119 -0.120513 331.559 0.0600068 331.279 0.240527L331.284 0.245156Z" fill="#EF790C"/>
<path d="M391.871 15.9321C397.761 13.8908 403.803 12.3356 409.938 11.3265L409.263 11.183C409.414 11.3682 406.686 13.7612 406.402 14.0251C405.367 14.9925 404.327 15.9599 403.292 16.9319C401.222 18.8667 399.156 20.8015 397.09 22.7456C396.824 23.0002 396.917 23.2779 397.25 23.3705C397.628 23.4723 398.157 23.3057 398.445 23.0372C402.248 19.5101 406.033 15.9599 409.818 12.4143C410.196 12.0625 410.702 11.7107 410.92 11.2201C411.138 10.7294 410.884 10.3684 410.382 10.3406C409.849 10.3082 409.227 10.5119 408.703 10.6045C408.077 10.7155 407.45 10.8359 406.828 10.9562C404.394 11.4376 401.968 11.9884 399.565 12.6272C396.895 13.3354 394.252 14.1501 391.64 15.0527C391.395 15.136 390.804 15.3581 390.902 15.7331C390.995 16.0895 391.639 16.0201 391.871 15.9414V15.9321Z" fill="#EF790C"/>
</g>
<g clip-path="url(#clip1_36_455)">
<path d="M29.2117 353.966C25.2329 364.199 21.3309 374.5 17.3905 384.767C17.0883 385.546 17.8617 385.836 18.2324 385.792C21.0892 385.445 23.6121 383.071 26.0482 381.224C28.4843 379.377 31.002 377.357 33.4422 375.318C38.3227 371.24 42.9995 366.779 47.6862 362.286L45.9429 361.382C42.2328 368.523 38.7163 375.907 35.1103 383.173C31.5043 390.44 27.8971 397.696 24.2923 404.973C22.2593 409.078 20.2262 413.183 18.2181 417.324C17.9003 417.975 18.0516 418.547 18.6422 418.683C19.2329 418.818 20.0979 418.339 20.4469 417.663C27.7618 403.246 34.88 388.617 42.084 374.075C44.1171 369.97 46.2099 365.907 48.1796 361.73C48.4465 361.167 48.4344 360.615 47.8836 360.414C47.2754 360.19 46.6108 360.63 46.1548 361.099C41.9024 365.509 37.4068 369.49 32.8786 373.315C30.6335 375.215 28.361 377.058 26.06 378.835C24.9101 379.729 23.7578 380.602 22.5975 381.467C21.4373 382.332 20.3116 383.312 18.9846 383.476L19.8265 384.501C23.7388 374.229 27.684 364.001 31.5591 353.704C31.8436 352.947 31.1085 352.692 30.7422 352.715C30.1517 352.751 29.4985 353.229 29.2117 353.966Z" fill="#EF790C"/>
</g>
<defs>
<clipPath id="clip0_36_455">
<rect width="102" height="47" fill="white" transform="translate(309)"/>
</clipPath>
<clipPath id="clip1_36_455">
<rect width="61" height="66" fill="white" transform="translate(0 355.824) rotate(-8.31777)"/>
</clipPath>
</defs>
</svg>
