<svg width="138" height="26" viewBox="0 0 138 26" fill="none" xmlns="http://www.w3.org/2000/svg">
<path fill-rule="evenodd" clip-rule="evenodd" d="M21.9456 0.859375C23.6314 0.859375 25 2.22803 25 3.91377V22.805C25 24.4907 23.6313 25.8594 21.9456 25.8594H16.747V16.4397H19.9989L20.6177 12.4055H16.747V9.78745C16.747 8.68379 17.2876 7.60796 19.0214 7.60796H20.7812V4.17339C20.7812 4.17339 19.1841 3.90083 17.6571 3.90083C14.4692 3.90083 12.3856 5.83291 12.3856 9.33071V12.4055H8.84204V16.4397H12.3856V25.8594H3.05439C1.36865 25.8594 0 24.4907 0 22.805V3.91377C0 2.22803 1.3686 0.859375 3.05439 0.859375L21.9456 0.859375Z" fill="#606060"/>
<path d="M85.1105 6.3799C85.1105 3.45038 82.9557 1.09374 80.2931 1.09374C76.6865 0.924475 73.0084 0.859375 69.2521 0.859375C69.0567 0.859375 68.8614 0.859375 68.6661 0.859375C68.4708 0.859375 68.2755 0.859375 68.0802 0.859375C64.3304 0.859375 60.6458 0.924475 57.0392 1.09374C54.3831 1.09374 52.2283 3.4634 52.2283 6.39292C52.0655 8.7105 51.9939 11.0281 52.0004 13.3457C51.9939 15.6632 52.0655 17.9808 52.2217 20.3049C52.2217 23.2344 54.3766 25.6106 57.0327 25.6106C60.8215 25.7864 64.708 25.8645 68.6596 25.858C72.6177 25.871 76.4912 25.7929 80.2866 25.6106C82.9492 25.6106 85.104 23.2344 85.104 20.3049C85.2603 17.9808 85.3319 15.6632 85.3254 13.3391C85.3384 11.0216 85.2668 8.70399 85.1105 6.3799ZM65.4762 19.732V6.93977L74.9158 13.3326L65.4762 19.732Z" fill="#606060"/>
<path fill-rule="evenodd" clip-rule="evenodd" d="M134.273 0.859375C135.958 0.859375 137.327 2.22803 137.327 3.91377V22.805C137.327 24.4907 135.958 25.8594 134.273 25.8594H115.381C113.696 25.8594 112.327 24.4907 112.327 22.805V3.91377C112.327 2.22803 113.696 0.859375 115.381 0.859375L134.273 0.859375ZM124.827 4.81445C122.506 4.81445 122.215 4.82427 121.304 4.86587C120.394 4.90737 119.773 5.05181 119.23 5.26309C118.668 5.48145 118.191 5.77363 117.716 6.24863C117.241 6.72368 116.949 7.20024 116.731 7.76211C116.519 8.30566 116.375 8.92681 116.333 9.83633C116.292 10.7477 116.282 11.0387 116.282 13.3594C116.282 15.68 116.292 15.971 116.333 16.8824C116.375 17.7919 116.519 18.4131 116.731 18.9566C116.949 19.5185 117.241 19.9951 117.716 20.4701C118.191 20.9452 118.668 21.2374 119.23 21.4557C119.773 21.6669 120.394 21.8114 121.304 21.8529C122.215 21.8945 122.506 21.9043 124.827 21.9043C127.148 21.9043 127.439 21.8945 128.35 21.8529C129.259 21.8114 129.881 21.6669 130.424 21.4557C130.986 21.2374 131.463 20.9452 131.938 20.4701C132.413 19.9951 132.705 19.5185 132.923 18.9566C133.134 18.4131 133.279 17.7919 133.32 16.8824C133.362 15.971 133.372 15.68 133.372 13.3594C133.372 11.0387 133.362 10.7477 133.32 9.83633C133.279 8.92681 133.134 8.30566 132.923 7.76211C132.705 7.20024 132.413 6.72368 131.938 6.24863C131.463 5.77363 130.986 5.48145 130.424 5.26309C129.881 5.05181 129.259 4.90737 128.35 4.86587C127.439 4.82427 127.148 4.81445 124.827 4.81445ZM124.827 6.3541C127.108 6.3541 127.379 6.36279 128.28 6.40391C129.113 6.44194 129.565 6.58115 129.866 6.6981C130.265 6.85313 130.55 7.03833 130.849 7.3373C131.148 7.63633 131.333 7.921 131.488 8.31982C131.605 8.62095 131.744 9.07339 131.782 9.90649C131.823 10.8075 131.832 11.0778 131.832 13.3594C131.832 15.641 131.823 15.9112 131.782 16.8123C131.744 17.6454 131.605 18.0978 131.488 18.3989C131.333 18.7978 131.148 19.0824 130.849 19.3814C130.55 19.6805 130.265 19.8656 129.866 20.0207C129.565 20.1376 129.113 20.2769 128.28 20.3148C127.379 20.356 127.109 20.3647 124.827 20.3647C122.545 20.3647 122.275 20.356 121.374 20.3148C120.541 20.2769 120.088 20.1376 119.787 20.0207C119.388 19.8656 119.104 19.6805 118.805 19.3814C118.506 19.0824 118.321 18.7978 118.166 18.3989C118.049 18.0978 117.909 17.6454 117.871 16.8123C117.83 15.9112 117.822 15.641 117.822 13.3594C117.822 11.0778 117.83 10.8075 117.871 9.90649C117.909 9.07339 118.049 8.62095 118.166 8.31982C118.321 7.921 118.506 7.63633 118.805 7.3373C119.104 7.03833 119.388 6.85313 119.787 6.6981C120.088 6.58115 120.541 6.44194 121.374 6.40391C122.275 6.36279 122.545 6.3541 124.827 6.3541ZM124.827 8.97144C122.404 8.97144 120.439 10.936 120.439 13.3594C120.439 15.7828 122.404 17.7473 124.827 17.7473C127.25 17.7473 129.215 15.7828 129.215 13.3594C129.215 10.936 127.25 8.97144 124.827 8.97144ZM124.827 16.2077C123.254 16.2077 121.979 14.9325 121.979 13.3594C121.979 11.7863 123.254 10.5111 124.827 10.5111C126.4 10.5111 127.675 11.7863 127.675 13.3594C127.675 14.9325 126.4 16.2077 124.827 16.2077ZM130.414 8.7981C130.414 9.3644 129.954 9.82344 129.388 9.82344C128.822 9.82344 128.363 9.3644 128.363 8.7981C128.363 8.23179 128.822 7.77271 129.388 7.77271C129.954 7.77271 130.414 8.23179 130.414 8.7981Z" fill="#606060"/>
</svg>
